<svg version="1.1" xmlns="http://www.w3.org/2000/svg" xmlns:xlink="http://www.w3.org/1999/xlink" width="512.000000pt" height="512.000000pt" viewBox="0,0,256,256"><g fill="#ffffff" fill-rule="nonzero" stroke="none" stroke-width="1" stroke-linecap="butt" stroke-linejoin="miter" stroke-miterlimit="10" stroke-dasharray="" stroke-dashoffset="0" font-family="none" font-weight="none" font-size="none" text-anchor="none" style="mix-blend-mode: normal"><g transform="translate(-0.01289,0.08489) scale(0.5,0.5)"><g transform="translate(0,512) scale(0.1,-0.1)"><path d="M2360,4579c-656,-44 -1283,-343 -1655,-789c-538,-646 -507,-1507 77,-2115l97,-101l-65,-449c-35,-247 -64,-465 -64,-486c0,-46 29,-84 77,-100c36,-12 40,-10 551,245l514,257l91,-20c197,-42 324,-55 562,-55c243,-1 360,9 556,49c234,47 423,112 631,216c245,122 381,220 573,413c160,160 259,298 343,476c331,698 106,1483 -568,1985c-376,279 -832,439 -1355,475c-156,11 -187,11 -365,-1zM2965,4341c257,-45 434,-100 645,-202c325,-157 568,-362 746,-630c154,-231 227,-471 227,-744c-1,-217 -38,-367 -143,-580c-208,-422 -647,-760 -1188,-915c-393,-113 -844,-125 -1247,-35c-60,14 -120,25 -132,25c-11,0 -213,-97 -448,-215c-235,-119 -429,-214 -432,-212c-2,3 21,181 52,396c31,216 53,402 49,414c-4,12 -61,78 -128,147c-291,302 -428,612 -429,975c0,154 10,228 49,361c182,630 831,1118 1629,1223c44,6 94,13 110,15c17,2 140,3 275,1c194,-2 270,-7 365,-24z"></path></g></g></g></svg>