<svg version="1.1" xmlns="http://www.w3.org/2000/svg" xmlns:xlink="http://www.w3.org/1999/xlink" width="24.000000pt" height="24.000000pt" viewBox="0,0,256,256"><g fill="#ffffff" fill-rule="nonzero" stroke="none" stroke-width="1" stroke-linecap="butt" stroke-linejoin="miter" stroke-miterlimit="10" stroke-dasharray="" stroke-dashoffset="0" font-family="none" font-weight="none" font-size="none" text-anchor="none" style="mix-blend-mode: normal"><g transform="translate(0.68426,-4.09062) scale(10.66667,10.66667)"><g transform="translate(0,24) scale(0.1,-0.1)"><path d="M35,193c-27,-26 -17,-59 34,-115l49,-53l37,35c57,54 76,98 55,130c-13,21 -155,24 -175,3zM108,178c8,-8 15,-8 26,1c23,19 60,10 64,-16c2,-15 -10,-37 -37,-65l-40,-43l-36,35c-36,35 -52,70 -40,89c8,15 48,14 63,-1z"></path></g></g></g></svg>